<?xml version="1.0" encoding="UTF-8" standalone="no"?><svg xmlns="http://www.w3.org/2000/svg" xmlns:xlink="http://www.w3.org/1999/xlink" contentScriptType="application/ecmascript" contentStyleType="text/css" height="405px" preserveAspectRatio="none" style="width:208px;height:405px;" version="1.1" viewBox="0 0 208 405" width="208px" zoomAndPan="magnify"><defs><filter height="300%" id="fq4m4z9m9b5g0" width="300%" x="-1" y="-1"><feGaussianBlur result="blurOut" stdDeviation="2.0"/><feColorMatrix in="blurOut" result="blurOut2" type="matrix" values="0 0 0 0 0 0 0 0 0 0 0 0 0 0 0 0 0 0 .4 0"/><feOffset dx="4.0" dy="4.0" in="blurOut2" result="blurOut3"/><feBlend in="SourceGraphic" in2="blurOut3" mode="normal"/></filter></defs><g><ellipse cx="93.5" cy="20" fill="#000000" filter="url(#fq4m4z9m9b5g0)" rx="10" ry="10" style="stroke:none;stroke-width:1.0;"/><rect fill="#FEFECE" filter="url(#fq4m4z9m9b5g0)" height="33.9688" rx="12.5" ry="12.5" style="stroke:#A80036;stroke-width:1.5;" width="92" x="47.5" y="50"/><text fill="#000000" font-family="sans-serif" font-size="12" lengthAdjust="spacing" textLength="72" x="57.5" y="71.1387">收到已读回执</text><rect fill="#FEFECE" filter="url(#fq4m4z9m9b5g0)" height="33.9688" rx="12.5" ry="12.5" style="stroke:#A80036;stroke-width:1.5;" width="92" x="47.5" y="103.9688"/><text fill="#000000" font-family="sans-serif" font-size="12" lengthAdjust="spacing" textLength="72" x="57.5" y="125.1074">更新回执状态</text><rect fill="#FEFECE" filter="url(#fq4m4z9m9b5g0)" height="33.9688" rx="12.5" ry="12.5" style="stroke:#A80036;stroke-width:1.5;" width="164" x="11.5" y="157.9375"/><text fill="#000000" font-family="sans-serif" font-size="12" lengthAdjust="spacing" textLength="144" x="21.5" y="179.0762">获取消息发送用户以及状态</text><rect fill="#FEFECE" filter="url(#fq4m4z9m9b5g0)" height="33.9688" rx="12.5" ry="12.5" style="stroke:#A80036;stroke-width:1.5;" width="165" x="11" y="260.3086"/><text fill="#000000" font-family="sans-serif" font-size="12" lengthAdjust="spacing" textLength="145" x="21" y="281.4473">获取用户的所有channelId</text><rect fill="#FEFECE" filter="url(#fq4m4z9m9b5g0)" height="33.9688" rx="12.5" ry="12.5" style="stroke:#A80036;stroke-width:1.5;" width="91" x="48" y="314.2773"/><text fill="#000000" font-family="sans-serif" font-size="12" lengthAdjust="spacing" textLength="71" x="58" y="335.416">发送回执ACK</text><polygon fill="#FEFECE" filter="url(#fq4m4z9m9b5g0)" points="68.5,211.9063,118.5,211.9063,130.5,223.9063,118.5,235.9063,68.5,235.9063,56.5,223.9063,68.5,211.9063" style="stroke:#A80036;stroke-width:1.5;"/><text fill="#000000" font-family="sans-serif" font-size="11" lengthAdjust="spacing" textLength="23" x="97.5" y="246.1167">true</text><text fill="#000000" font-family="sans-serif" font-size="11" lengthAdjust="spacing" textLength="50" x="68.5" y="227.7144">用户在线?</text><text fill="#000000" font-family="sans-serif" font-size="11" lengthAdjust="spacing" textLength="28" x="130.5" y="221.312">false</text><ellipse cx="180.5" cy="223.9063" fill="#FFFFFF" filter="url(#fq4m4z9m9b5g0)" rx="11" ry="11" style="stroke:#000000;stroke-width:1.0;"/><ellipse cx="180.5" cy="223.9063" fill="#000000" rx="6" ry="6" style="stroke:#7F7F7F;stroke-width:1.0;"/><ellipse cx="93.5" cy="378.2461" fill="#FFFFFF" filter="url(#fq4m4z9m9b5g0)" rx="10" ry="10" style="stroke:#000000;stroke-width:1.5;"/><line style="stroke:#000000;stroke-width:2.5;" x1="87.3128" x2="99.6872" y1="372.0589" y2="384.4333"/><line style="stroke:#000000;stroke-width:2.5;" x1="99.6872" x2="87.3128" y1="372.0589" y2="384.4333"/><line style="stroke:#A80036;stroke-width:1.5;" x1="93.5" x2="93.5" y1="30" y2="50"/><polygon fill="#A80036" points="89.5,40,93.5,50,97.5,40,93.5,44" style="stroke:#A80036;stroke-width:1.0;"/><line style="stroke:#A80036;stroke-width:1.5;" x1="93.5" x2="93.5" y1="83.9688" y2="103.9688"/><polygon fill="#A80036" points="89.5,93.9688,93.5,103.9688,97.5,93.9688,93.5,97.9688" style="stroke:#A80036;stroke-width:1.0;"/><line style="stroke:#A80036;stroke-width:1.5;" x1="93.5" x2="93.5" y1="137.9375" y2="157.9375"/><polygon fill="#A80036" points="89.5,147.9375,93.5,157.9375,97.5,147.9375,93.5,151.9375" style="stroke:#A80036;stroke-width:1.0;"/><line style="stroke:#A80036;stroke-width:1.5;" x1="93.5" x2="93.5" y1="294.2773" y2="314.2773"/><polygon fill="#A80036" points="89.5,304.2773,93.5,314.2773,97.5,304.2773,93.5,308.2773" style="stroke:#A80036;stroke-width:1.0;"/><line style="stroke:#A80036;stroke-width:1.5;" x1="93.5" x2="93.5" y1="235.9063" y2="260.3086"/><polygon fill="#A80036" points="89.5,250.3086,93.5,260.3086,97.5,250.3086,93.5,254.3086" style="stroke:#A80036;stroke-width:1.0;"/><line style="stroke:#A80036;stroke-width:1.5;" x1="130.5" x2="169.5" y1="223.9063" y2="223.9063"/><polygon fill="#A80036" points="159.5,219.9063,169.5,223.9063,159.5,227.9063,163.5,223.9063" style="stroke:#A80036;stroke-width:1.0;"/><line style="stroke:#A80036;stroke-width:1.5;" x1="93.5" x2="93.5" y1="348.2461" y2="368.2461"/><polygon fill="#A80036" points="89.5,358.2461,93.5,368.2461,97.5,358.2461,93.5,362.2461" style="stroke:#A80036;stroke-width:1.0;"/><line style="stroke:#A80036;stroke-width:1.5;" x1="93.5" x2="93.5" y1="191.9063" y2="211.9063"/><polygon fill="#A80036" points="89.5,201.9063,93.5,211.9063,97.5,201.9063,93.5,205.9063" style="stroke:#A80036;stroke-width:1.0;"/></g></svg>