<?xml version="1.0" encoding="UTF-8" standalone="no"?><svg xmlns="http://www.w3.org/2000/svg" xmlns:xlink="http://www.w3.org/1999/xlink" contentScriptType="application/ecmascript" contentStyleType="text/css" height="393px" preserveAspectRatio="none" style="width:478px;height:393px;" version="1.1" viewBox="0 0 478 393" width="478px" zoomAndPan="magnify"><defs><filter height="300%" id="f1cfrzdn5zms8c" width="300%" x="-1" y="-1"><feGaussianBlur result="blurOut" stdDeviation="2.0"/><feColorMatrix in="blurOut" result="blurOut2" type="matrix" values="0 0 0 0 0 0 0 0 0 0 0 0 0 0 0 0 0 0 .4 0"/><feOffset dx="4.0" dy="4.0" in="blurOut2" result="blurOut3"/><feBlend in="SourceGraphic" in2="blurOut3" mode="normal"/></filter></defs><g><rect fill="#FFFFFF" filter="url(#f1cfrzdn5zms8c)" height="35.1328" style="stroke:#A80036;stroke-width:1.0;" width="10" x="21.5" y="248.9609"/><rect fill="#FFFFFF" filter="url(#f1cfrzdn5zms8c)" height="129.5313" style="stroke:#A80036;stroke-width:1.0;" width="10" x="134.5" y="119.4297"/><line style="stroke:#A80036;stroke-width:1.0;stroke-dasharray:5.0,5.0;" x1="26" x2="26" y1="88.2969" y2="309.0938"/><line style="stroke:#A80036;stroke-width:1.0;stroke-dasharray:5.0,5.0;" x1="139.5" x2="139.5" y1="88.2969" y2="309.0938"/><line style="stroke:#A80036;stroke-width:1.0;stroke-dasharray:5.0,5.0;" x1="424.5" x2="424.5" y1="88.2969" y2="309.0938"/><text fill="#000000" font-family="sans-serif" font-size="14" lengthAdjust="spacing" textLength="37" x="5" y="84.9951">用户A</text><ellipse cx="26.5" cy="15" fill="#FEFECE" filter="url(#f1cfrzdn5zms8c)" rx="8" ry="8" style="stroke:#A80036;stroke-width:2.0;"/><path d="M26.5,23 L26.5,50 M13.5,31 L39.5,31 M26.5,50 L13.5,65 M26.5,50 L39.5,65 " fill="none" filter="url(#f1cfrzdn5zms8c)" style="stroke:#A80036;stroke-width:2.0;"/><text fill="#000000" font-family="sans-serif" font-size="14" lengthAdjust="spacing" textLength="37" x="5" y="321.0889">用户A</text><ellipse cx="26.5" cy="334.3906" fill="#FEFECE" filter="url(#f1cfrzdn5zms8c)" rx="8" ry="8" style="stroke:#A80036;stroke-width:2.0;"/><path d="M26.5,342.3906 L26.5,369.3906 M13.5,350.3906 L39.5,350.3906 M26.5,369.3906 L13.5,384.3906 M26.5,369.3906 L39.5,384.3906 " fill="none" filter="url(#f1cfrzdn5zms8c)" style="stroke:#A80036;stroke-width:2.0;"/><rect fill="#FEFECE" filter="url(#f1cfrzdn5zms8c)" height="30.2969" style="stroke:#A80036;stroke-width:1.5;" width="84" x="95.5" y="53"/><text fill="#000000" font-family="sans-serif" font-size="14" lengthAdjust="spacing" textLength="70" x="102.5" y="72.9951">消息接入层</text><rect fill="#FEFECE" filter="url(#f1cfrzdn5zms8c)" height="30.2969" style="stroke:#A80036;stroke-width:1.5;" width="84" x="95.5" y="308.0938"/><text fill="#000000" font-family="sans-serif" font-size="14" lengthAdjust="spacing" textLength="70" x="102.5" y="328.0889">消息接入层</text><rect fill="#FEFECE" filter="url(#f1cfrzdn5zms8c)" height="30.2969" style="stroke:#A80036;stroke-width:1.5;" width="84" x="380.5" y="53"/><text fill="#000000" font-family="sans-serif" font-size="14" lengthAdjust="spacing" textLength="70" x="387.5" y="72.9951">消息处理层</text><rect fill="#FEFECE" filter="url(#f1cfrzdn5zms8c)" height="30.2969" style="stroke:#A80036;stroke-width:1.5;" width="84" x="380.5" y="308.0938"/><text fill="#000000" font-family="sans-serif" font-size="14" lengthAdjust="spacing" textLength="70" x="387.5" y="328.0889">消息处理层</text><rect fill="#FFFFFF" filter="url(#f1cfrzdn5zms8c)" height="35.1328" style="stroke:#A80036;stroke-width:1.0;" width="10" x="21.5" y="248.9609"/><rect fill="#FFFFFF" filter="url(#f1cfrzdn5zms8c)" height="129.5313" style="stroke:#A80036;stroke-width:1.0;" width="10" x="134.5" y="119.4297"/><polygon fill="#A80036" points="122.5,115.4297,132.5,119.4297,122.5,123.4297,126.5,119.4297" style="stroke:#A80036;stroke-width:1.0;"/><line style="stroke:#A80036;stroke-width:1.0;" x1="26.5" x2="128.5" y1="119.4297" y2="119.4297"/><text fill="#000000" font-family="sans-serif" font-size="13" font-weight="bold" lengthAdjust="spacing" textLength="9" x="33.5" y="114.3638">1</text><text fill="#000000" font-family="sans-serif" font-size="13" lengthAdjust="spacing" textLength="76" x="46.5" y="114.3638">last_msg_id</text><line style="stroke:#A80036;stroke-width:1.0;" x1="144.5" x2="186.5" y1="148.5625" y2="148.5625"/><line style="stroke:#A80036;stroke-width:1.0;" x1="186.5" x2="186.5" y1="148.5625" y2="161.5625"/><line style="stroke:#A80036;stroke-width:1.0;" x1="145.5" x2="186.5" y1="161.5625" y2="161.5625"/><polygon fill="#A80036" points="155.5,157.5625,145.5,161.5625,155.5,165.5625,151.5,161.5625" style="stroke:#A80036;stroke-width:1.0;"/><text fill="#000000" font-family="sans-serif" font-size="13" font-weight="bold" lengthAdjust="spacing" textLength="9" x="151.5" y="143.4966">2</text><text fill="#000000" font-family="sans-serif" font-size="13" lengthAdjust="spacing" textLength="63" x="164.5" y="143.4966">换取用户id</text><polygon fill="#A80036" points="412.5,186.6953,422.5,190.6953,412.5,194.6953,416.5,190.6953" style="stroke:#A80036;stroke-width:1.0;"/><line style="stroke:#A80036;stroke-width:1.0;" x1="144.5" x2="418.5" y1="190.6953" y2="190.6953"/><text fill="#000000" font-family="sans-serif" font-size="13" font-weight="bold" lengthAdjust="spacing" textLength="9" x="151.5" y="185.6294">3</text><text fill="#000000" font-family="sans-serif" font-size="13" lengthAdjust="spacing" textLength="243" x="164.5" y="185.6294">请求用户当前会话中&gt;last_msg_id的数据</text><polygon fill="#A80036" points="155.5,215.8281,145.5,219.8281,155.5,223.8281,151.5,219.8281" style="stroke:#A80036;stroke-width:1.0;"/><line style="stroke:#A80036;stroke-width:1.0;stroke-dasharray:2.0,2.0;" x1="149.5" x2="423.5" y1="219.8281" y2="219.8281"/><text fill="#000000" font-family="sans-serif" font-size="13" font-weight="bold" lengthAdjust="spacing" textLength="9" x="161.5" y="214.7622">4</text><text fill="#000000" font-family="sans-serif" font-size="13" lengthAdjust="spacing" textLength="52" x="174.5" y="214.7622">返回数据</text><polygon fill="#A80036" points="42.5,244.9609,32.5,248.9609,42.5,252.9609,38.5,248.9609" style="stroke:#A80036;stroke-width:1.0;"/><line style="stroke:#A80036;stroke-width:1.0;stroke-dasharray:2.0,2.0;" x1="36.5" x2="138.5" y1="248.9609" y2="248.9609"/><text fill="#000000" font-family="sans-serif" font-size="13" font-weight="bold" lengthAdjust="spacing" textLength="9" x="48.5" y="243.895">5</text><text fill="#000000" font-family="sans-serif" font-size="13" lengthAdjust="spacing" textLength="52" x="61.5" y="243.895">返回数据</text><line style="stroke:#A80036;stroke-width:1.0;" x1="31.5" x2="73.5" y1="283.0938" y2="283.0938"/><line style="stroke:#A80036;stroke-width:1.0;" x1="73.5" x2="73.5" y1="283.0938" y2="296.0938"/><line style="stroke:#A80036;stroke-width:1.0;" x1="26.5" x2="73.5" y1="296.0938" y2="296.0938"/><polygon fill="#A80036" points="36.5,292.0938,26.5,296.0938,36.5,300.0938,32.5,296.0938" style="stroke:#A80036;stroke-width:1.0;"/><text fill="#000000" font-family="sans-serif" font-size="13" font-weight="bold" lengthAdjust="spacing" textLength="9" x="38.5" y="278.0278">6</text><text fill="#000000" font-family="sans-serif" font-size="13" lengthAdjust="spacing" textLength="65" x="51.5" y="278.0278">客户端去重</text></g></svg>