<?xml version="1.0" encoding="UTF-8" standalone="no"?><svg xmlns="http://www.w3.org/2000/svg" xmlns:xlink="http://www.w3.org/1999/xlink" contentScriptType="application/ecmascript" contentStyleType="text/css" height="581px" preserveAspectRatio="none" style="width:385px;height:581px;" version="1.1" viewBox="0 0 385 581" width="385px" zoomAndPan="magnify"><defs><filter height="300%" id="f1tsg11za6mlti" width="300%" x="-1" y="-1"><feGaussianBlur result="blurOut" stdDeviation="2.0"/><feColorMatrix in="blurOut" result="blurOut2" type="matrix" values="0 0 0 0 0 0 0 0 0 0 0 0 0 0 0 0 0 0 .4 0"/><feOffset dx="4.0" dy="4.0" in="blurOut2" result="blurOut3"/><feBlend in="SourceGraphic" in2="blurOut3" mode="normal"/></filter></defs><g><ellipse cx="208" cy="20" fill="#000000" filter="url(#f1tsg11za6mlti)" rx="10" ry="10" style="stroke:none;stroke-width:1.0;"/><rect fill="#FEFECE" filter="url(#f1tsg11za6mlti)" height="33.9688" rx="12.5" ry="12.5" style="stroke:#A80036;stroke-width:1.5;" width="68" x="174" y="50"/><text fill="#000000" font-family="sans-serif" font-size="12" lengthAdjust="spacing" textLength="48" x="184" y="71.1387">消费消息</text><rect fill="#FEFECE" filter="url(#f1tsg11za6mlti)" height="33.9688" rx="12.5" ry="12.5" style="stroke:#A80036;stroke-width:1.5;" width="128" x="144" y="103.9688"/><text fill="#000000" font-family="sans-serif" font-size="12" lengthAdjust="spacing" textLength="108" x="154" y="125.1074">写入「消息存储库」</text><rect fill="#FEFECE" filter="url(#f1tsg11za6mlti)" height="33.9688" rx="12.5" ry="12.5" style="stroke:#A80036;stroke-width:1.5;" width="104" x="156" y="157.9375"/><text fill="#000000" font-family="sans-serif" font-size="12" lengthAdjust="spacing" textLength="84" x="166" y="179.0762">写入「会话库」</text><rect fill="#FEFECE" filter="url(#f1tsg11za6mlti)" height="33.9688" rx="12.5" ry="12.5" style="stroke:#A80036;stroke-width:1.5;" width="152" x="132" y="211.9063"/><text fill="#000000" font-family="sans-serif" font-size="12" lengthAdjust="spacing" textLength="132" x="142" y="233.0449">获取群用户列表以及状态</text><polygon fill="#FEFECE" filter="url(#f1tsg11za6mlti)" points="183,265.875,233,265.875,245,277.875,233,289.875,183,289.875,171,277.875,183,265.875" style="stroke:#A80036;stroke-width:1.5;"/><text fill="#000000" font-family="sans-serif" font-size="11" lengthAdjust="spacing" textLength="50" x="183" y="281.6831">用户在线?</text><text fill="#000000" font-family="sans-serif" font-size="11" lengthAdjust="spacing" textLength="23" x="148" y="275.2808">true</text><text fill="#000000" font-family="sans-serif" font-size="11" lengthAdjust="spacing" textLength="28" x="245" y="275.2808">false</text><rect fill="#FEFECE" filter="url(#f1tsg11za6mlti)" height="33.9688" rx="12.5" ry="12.5" style="stroke:#A80036;stroke-width:1.5;" width="165" x="11" y="299.875"/><text fill="#000000" font-family="sans-serif" font-size="12" lengthAdjust="spacing" textLength="145" x="21" y="321.0137">获取用户的所有channelId</text><rect fill="#FEFECE" filter="url(#f1tsg11za6mlti)" height="33.9688" rx="12.5" ry="12.5" style="stroke:#A80036;stroke-width:1.5;" width="116" x="35.5" y="353.8438"/><text fill="#000000" font-family="sans-serif" font-size="12" lengthAdjust="spacing" textLength="96" x="45.5" y="374.9824">发送消息至接收方</text><rect fill="#FEFECE" filter="url(#f1tsg11za6mlti)" height="33.9688" rx="12.5" ry="12.5" style="stroke:#A80036;stroke-width:1.5;" width="160" x="13.5" y="456.2148"/><text fill="#000000" font-family="sans-serif" font-size="12" lengthAdjust="spacing" textLength="140" x="23.5" y="477.3535">更新群用户的last_ack_id</text><polygon fill="#FEFECE" filter="url(#f1tsg11za6mlti)" points="68.5,407.8125,118.5,407.8125,130.5,419.8125,118.5,431.8125,68.5,431.8125,56.5,419.8125,68.5,407.8125" style="stroke:#A80036;stroke-width:1.5;"/><text fill="#000000" font-family="sans-serif" font-size="11" lengthAdjust="spacing" textLength="23" x="97.5" y="442.0229">true</text><text fill="#000000" font-family="sans-serif" font-size="11" lengthAdjust="spacing" textLength="50" x="68.5" y="423.6206">收到ACK?</text><text fill="#000000" font-family="sans-serif" font-size="11" lengthAdjust="spacing" textLength="28" x="130.5" y="417.2183">false</text><ellipse cx="180.5" cy="419.8125" fill="#FFFFFF" filter="url(#f1tsg11za6mlti)" rx="11" ry="11" style="stroke:#000000;stroke-width:1.0;"/><ellipse cx="180.5" cy="419.8125" fill="#000000" rx="6" ry="6" style="stroke:#7F7F7F;stroke-width:1.0;"/><rect fill="#FEFECE" filter="url(#f1tsg11za6mlti)" height="33.9688" rx="12.5" ry="12.5" style="stroke:#A80036;stroke-width:1.5;" width="92" x="276.5" y="299.875"/><text fill="#000000" font-family="sans-serif" font-size="12" lengthAdjust="spacing" textLength="72" x="286.5" y="321.0137">调用App推送</text><polygon fill="#FEFECE" filter="url(#f1tsg11za6mlti)" points="208,500.1836,220,512.1836,208,524.1836,196,512.1836,208,500.1836" style="stroke:#A80036;stroke-width:1.5;"/><ellipse cx="208" cy="554.1836" fill="#FFFFFF" filter="url(#f1tsg11za6mlti)" rx="10" ry="10" style="stroke:#000000;stroke-width:1.5;"/><line style="stroke:#000000;stroke-width:2.5;" x1="201.8128" x2="214.1872" y1="547.9964" y2="560.3708"/><line style="stroke:#000000;stroke-width:2.5;" x1="214.1872" x2="201.8128" y1="547.9964" y2="560.3708"/><line style="stroke:#A80036;stroke-width:1.5;" x1="208" x2="208" y1="30" y2="50"/><polygon fill="#A80036" points="204,40,208,50,212,40,208,44" style="stroke:#A80036;stroke-width:1.0;"/><line style="stroke:#A80036;stroke-width:1.5;" x1="208" x2="208" y1="83.9688" y2="103.9688"/><polygon fill="#A80036" points="204,93.9688,208,103.9688,212,93.9688,208,97.9688" style="stroke:#A80036;stroke-width:1.0;"/><line style="stroke:#A80036;stroke-width:1.5;" x1="208" x2="208" y1="137.9375" y2="157.9375"/><polygon fill="#A80036" points="204,147.9375,208,157.9375,212,147.9375,208,151.9375" style="stroke:#A80036;stroke-width:1.0;"/><line style="stroke:#A80036;stroke-width:1.5;" x1="208" x2="208" y1="191.9063" y2="211.9063"/><polygon fill="#A80036" points="204,201.9063,208,211.9063,212,201.9063,208,205.9063" style="stroke:#A80036;stroke-width:1.0;"/><line style="stroke:#A80036;stroke-width:1.5;" x1="93.5" x2="93.5" y1="333.8438" y2="353.8438"/><polygon fill="#A80036" points="89.5,343.8438,93.5,353.8438,97.5,343.8438,93.5,347.8438" style="stroke:#A80036;stroke-width:1.0;"/><line style="stroke:#A80036;stroke-width:1.5;" x1="93.5" x2="93.5" y1="431.8125" y2="456.2148"/><polygon fill="#A80036" points="89.5,446.2148,93.5,456.2148,97.5,446.2148,93.5,450.2148" style="stroke:#A80036;stroke-width:1.0;"/><line style="stroke:#A80036;stroke-width:1.5;" x1="130.5" x2="169.5" y1="419.8125" y2="419.8125"/><polygon fill="#A80036" points="159.5,415.8125,169.5,419.8125,159.5,423.8125,163.5,419.8125" style="stroke:#A80036;stroke-width:1.0;"/><line style="stroke:#A80036;stroke-width:1.5;" x1="93.5" x2="93.5" y1="490.1836" y2="512.1836"/><line style="stroke:#A80036;stroke-width:1.5;" x1="93.5" x2="196" y1="512.1836" y2="512.1836"/><polygon fill="#A80036" points="186,508.1836,196,512.1836,186,516.1836,190,512.1836" style="stroke:#A80036;stroke-width:1.0;"/><line style="stroke:#A80036;stroke-width:1.5;" x1="93.5" x2="93.5" y1="387.8125" y2="407.8125"/><polygon fill="#A80036" points="89.5,397.8125,93.5,407.8125,97.5,397.8125,93.5,401.8125" style="stroke:#A80036;stroke-width:1.0;"/><line style="stroke:#A80036;stroke-width:1.5;" x1="171" x2="93.5" y1="277.875" y2="277.875"/><line style="stroke:#A80036;stroke-width:1.5;" x1="93.5" x2="93.5" y1="277.875" y2="299.875"/><polygon fill="#A80036" points="89.5,289.875,93.5,299.875,97.5,289.875,93.5,293.875" style="stroke:#A80036;stroke-width:1.0;"/><line style="stroke:#A80036;stroke-width:1.5;" x1="245" x2="322.5" y1="277.875" y2="277.875"/><line style="stroke:#A80036;stroke-width:1.5;" x1="322.5" x2="322.5" y1="277.875" y2="299.875"/><polygon fill="#A80036" points="318.5,289.875,322.5,299.875,326.5,289.875,322.5,293.875" style="stroke:#A80036;stroke-width:1.0;"/><line style="stroke:#A80036;stroke-width:1.5;" x1="322.5" x2="322.5" y1="333.8438" y2="512.1836"/><line style="stroke:#A80036;stroke-width:1.5;" x1="322.5" x2="220" y1="512.1836" y2="512.1836"/><polygon fill="#A80036" points="230,508.1836,220,512.1836,230,516.1836,226,512.1836" style="stroke:#A80036;stroke-width:1.0;"/><line style="stroke:#A80036;stroke-width:1.5;" x1="208" x2="208" y1="245.875" y2="265.875"/><polygon fill="#A80036" points="204,255.875,208,265.875,212,255.875,208,259.875" style="stroke:#A80036;stroke-width:1.0;"/><line style="stroke:#A80036;stroke-width:1.5;" x1="208" x2="208" y1="524.1836" y2="544.1836"/><polygon fill="#A80036" points="204,534.1836,208,544.1836,212,534.1836,208,538.1836" style="stroke:#A80036;stroke-width:1.0;"/></g></svg>